<svg width="56" height="51" viewBox="0 0 56 51" fill="none" xmlns="http://www.w3.org/2000/svg">
<path fill-rule="evenodd" clip-rule="evenodd" d="M8.00807 32.7738C7.80016 32.4595 7.64255 32.103 7.54865 31.7274C7.5017 31.5396 7.46816 31.348 7.4514 31.1487L7.44134 30.9992V30.8497V6.73022V6.57308C7.44134 6.52325 7.4514 6.47343 7.4514 6.42743C7.48158 6.03649 7.57548 5.65322 7.72638 5.30061C7.87729 4.94799 8.08856 4.62604 8.34342 4.36158C8.59829 4.09712 8.89675 3.88249 9.21533 3.74451C9.53391 3.6027 9.87597 3.52987 10.2247 3.52987H46.8817C46.9252 3.52987 46.9688 3.54137 47.0091 3.54137C47.0527 3.54137 47.0963 3.55287 47.1365 3.5567C47.1801 3.56054 47.2204 3.57203 47.264 3.5797C47.6027 3.64869 47.9246 3.7905 48.2197 3.99747C48.5148 4.20061 48.773 4.47273 48.9809 4.78702C49.1888 5.1013 49.3465 5.45775 49.4404 5.83336C49.4873 6.02116 49.5208 6.2128 49.5376 6.4121L49.5477 6.56158V6.71106V30.8306V30.9877C49.5477 31.0375 49.5376 31.0874 49.5376 31.1372C49.5074 31.5281 49.4135 31.9114 49.2626 32.264C49.1117 32.6166 48.9004 32.9386 48.6456 33.203C48.3907 33.4675 48.0923 33.6821 47.7737 33.8201C47.4551 33.9619 47.113 34.0348 46.7643 34.0348H10.1107C10.0671 34.0348 10.0235 34.0233 9.98328 34.0233C9.93968 34.0233 9.89609 34.0118 9.85584 34.0079C9.81225 34.0041 9.77201 33.9926 9.72841 33.9849C9.38971 33.9159 9.06778 33.7741 8.77267 33.5672C8.47756 33.364 8.21934 33.0919 8.01143 32.7776L8.00807 32.7738ZM9.53391 35.1884C9.76865 35.2382 10.0034 35.2612 10.2482 35.2612H46.7676C47.2472 35.2612 47.72 35.1577 48.166 34.9623C48.6087 34.7668 49.0212 34.4717 49.3733 34.1037C49.7254 33.7358 50.0172 33.2912 50.2284 32.8044C50.4397 32.3177 50.5705 31.7849 50.6141 31.2407C50.6174 31.1717 50.6241 31.1027 50.6241 31.0375V30.8306L50.6275 6.70723V6.50026C50.6208 6.43127 50.6141 6.36611 50.6107 6.29712C50.5872 6.025 50.5437 5.7567 50.4766 5.49608C50.3458 4.97099 50.1278 4.47656 49.8394 4.04346C49.551 3.61036 49.1922 3.23475 48.7831 2.95113C48.3773 2.6675 47.9246 2.4682 47.4551 2.37238C47.2204 2.32256 46.9856 2.29956 46.7408 2.29956H10.2247C9.74518 2.29956 9.27234 2.40304 8.82632 2.59852C8.38367 2.79399 7.97119 3.08911 7.61907 3.45705C7.26696 3.825 6.9752 4.2696 6.76393 4.75635C6.55266 5.24311 6.42188 5.77587 6.37828 6.32012C6.37493 6.38911 6.36822 6.4581 6.36822 6.52325V6.73022L6.36487 30.8536V31.0605C6.37158 31.1295 6.37828 31.1985 6.38164 31.2637C6.40511 31.5358 6.44871 31.8041 6.51578 32.0647C6.64656 32.5898 6.86454 33.0842 7.15294 33.5173C7.44134 33.9504 7.80016 34.326 8.20928 34.6097C8.61506 34.8933 9.06778 35.0926 9.53726 35.1884H9.53391Z" fill="#E41E27"/>
<path fill-rule="evenodd" clip-rule="evenodd" d="M54.6416 48.2045C54.2593 48.9404 53.5886 49.3812 52.8407 49.3812H4.15488C3.39028 49.3812 2.70617 48.9251 2.33058 48.1624C1.95499 47.3997 1.96505 46.4951 2.36412 45.7439L5.89869 39.0519C6.27428 38.339 6.96174 37.8944 7.68945 37.8944H49.6348C50.3994 37.8944 51.1036 38.3697 51.4692 39.1401L54.6751 45.8321C55.0339 46.5833 55.0205 47.4686 54.6416 48.2084V48.2045ZM6.33464 34.4105C5.96911 33.8585 5.69077 33.23 5.52645 32.5631C5.44261 32.2296 5.3856 31.8885 5.35878 31.5436C5.35207 31.4592 5.34536 31.3711 5.34201 31.2868L5.3353 31.0261V6.60383C5.34201 6.51568 5.34872 6.43136 5.35542 6.34321C5.40908 5.65331 5.5734 4.97491 5.84503 4.35401C6.11331 3.7331 6.48219 3.16969 6.92821 2.70209C7.37422 2.23449 7.89736 1.86272 8.46075 1.60976C9.02413 1.35679 9.63111 1.23031 10.2347 1.23031H46.7408C47.0359 1.23031 47.3444 1.26098 47.6395 1.3223C48.2364 1.44495 48.8099 1.69791 49.3263 2.05819C49.8427 2.4223 50.2988 2.89373 50.6643 3.44564C51.0299 3.99756 51.3082 4.62613 51.4725 5.29303C51.5564 5.62648 51.6134 5.9676 51.6402 6.31254C51.6469 6.39686 51.6536 6.48502 51.657 6.56934L51.6637 6.82997V31.2523C51.657 31.3404 51.6503 31.4247 51.6436 31.5129C51.5899 32.2028 51.4256 32.8812 51.1539 33.5021C50.8857 34.123 50.5168 34.6864 50.0708 35.154C49.6248 35.6216 49.1016 35.9934 48.5382 36.2463C47.9748 36.4993 47.3679 36.6258 46.7642 36.6258H10.2582C9.96311 36.6258 9.65459 36.5951 9.35948 36.5338C8.76256 36.4112 8.18912 36.1582 7.67268 35.7979C7.15624 35.4338 6.70017 34.9624 6.33464 34.4105ZM55.604 45.2456L52.3981 38.5537C51.9152 37.5456 51.0466 36.8711 50.0708 36.7139C50.3256 36.5185 50.5704 36.3038 50.7951 36.0662C51.3384 35.499 51.7877 34.8091 52.1164 34.054C52.445 33.2951 52.6462 32.4634 52.7133 31.624C52.72 31.5206 52.7301 31.4132 52.7301 31.3098L52.7368 30.9993V6.82997L52.7301 6.51568C52.7267 6.40836 52.7167 6.30488 52.71 6.20139C52.6764 5.77979 52.606 5.36202 52.5054 4.95575C52.3008 4.14321 51.9655 3.37282 51.5161 2.70209C51.0701 2.03136 50.5168 1.45261 49.8863 1.01185C49.2592 0.567247 48.555 0.260627 47.8273 0.11115C47.7367 0.0919861 47.6462 0.0728223 47.5523 0.061324C47.4618 0.0498258 47.3679 0.0344948 47.2773 0.0268293C47.1868 0.0191638 47.0929 0.00766551 47.0023 0.00766551H46.8648L46.7944 0H10.2314C9.49697 0 8.75586 0.157143 8.06839 0.463763C7.37757 0.770383 6.74377 1.22648 6.19715 1.79373C5.65388 2.36098 5.20116 3.05087 4.87588 3.80592C4.54723 4.56481 4.34602 5.39652 4.27895 6.23589C4.27225 6.33937 4.26219 6.44669 4.26219 6.55017L4.25548 6.86063V31.0261L4.26219 31.3404C4.26554 31.4477 4.2756 31.5512 4.28231 31.6547C4.31584 32.0763 4.38627 32.4941 4.48687 32.9003C4.69143 33.7129 5.02678 34.4833 5.47615 35.154C5.89533 35.7864 6.41512 36.3345 6.99863 36.7638C6.17367 36.9784 5.43926 37.5725 4.99325 38.4157L1.45868 45.1153C0.861756 46.246 0.844988 47.6066 1.40837 48.7564C1.97511 49.9063 3.00128 50.5923 4.15488 50.5923H52.8407C53.9642 50.5923 54.9803 49.9293 55.5537 48.8216C56.1272 47.7139 56.1473 46.3763 55.604 45.2456Z" fill="#E41E27"/>
</svg>
