<svg width="39" height="60" viewBox="0 0 39 60" fill="none" xmlns="http://www.w3.org/2000/svg">
<path fill-rule="evenodd" clip-rule="evenodd" d="M25.6962 25.6501V54.534C25.6962 54.6187 25.6963 54.6996 25.6889 54.7843C25.6815 54.869 25.6778 54.9499 25.6668 55.0346C25.6558 55.1156 25.6447 55.2002 25.63 55.2812C25.5159 55.9401 25.2361 56.5659 24.8386 57.0996C24.6362 57.3646 24.4079 57.6075 24.154 57.8247C23.9 58.0382 23.6166 58.2223 23.3184 58.3732C22.7221 58.675 22.0522 58.8259 21.3896 58.8296H5.41826L5.29311 58.8259C5.20845 58.8259 5.12747 58.8149 5.04281 58.8075C4.96183 58.7965 4.87717 58.7891 4.79619 58.7744C4.46859 58.7192 4.14468 58.6308 3.83548 58.502C3.22077 58.2443 2.66496 57.8468 2.22693 57.3425C1.78891 56.8419 1.47235 56.2309 1.30671 55.5867C1.22573 55.2628 1.18156 54.9315 1.1742 54.5966C1.1742 54.5082 1.1742 54.4457 1.1742 54.3684V16.1424C1.1742 16.0577 1.1742 15.9767 1.18156 15.8921C1.18893 15.8074 1.19261 15.7264 1.20365 15.6418C1.21469 15.5608 1.22573 15.4761 1.24046 15.3952C1.35457 14.7363 1.63431 14.1105 2.03185 13.5768C2.2343 13.3118 2.46251 13.0688 2.71649 12.8517C2.97047 12.6382 3.2539 12.4541 3.55205 12.3032C4.14836 12.0014 4.81828 11.8468 5.48084 11.8468H21.4522L21.5773 11.8505C21.662 11.8505 21.743 11.8615 21.8276 11.8689C21.9086 11.8799 21.9933 11.8873 22.0743 11.902C22.4019 11.9572 22.7258 12.0456 23.035 12.1744C23.6497 12.4321 24.2055 12.8296 24.6435 13.3339C25.0815 13.8345 25.3981 14.4455 25.5637 15.0897C25.6447 15.4136 25.6889 15.7448 25.6962 16.0798C25.6962 16.1681 25.6962 16.2307 25.6962 16.308V25.6464V25.6501ZM26.8705 16.0651C26.8631 15.6418 26.8079 15.2185 26.7011 14.8062C26.4913 13.9817 26.0864 13.2087 25.5306 12.5682C24.9785 11.9278 24.2717 11.4198 23.4877 11.0922C23.0939 10.9303 22.6816 10.8125 22.262 10.7462C22.1589 10.7278 22.0522 10.7168 21.9454 10.7057C21.8387 10.6984 21.7356 10.6873 21.6289 10.6836H21.4706L21.3933 10.6763H5.48452C4.64159 10.6763 3.78395 10.875 3.02937 11.2578C2.65024 11.4493 2.29319 11.6812 1.96927 11.9535C1.64536 12.2259 1.35088 12.5351 1.0969 12.8738C0.588941 13.551 0.235577 14.3535 0.0883412 15.189C0.0699368 15.2921 0.0552133 15.3988 0.0404897 15.5056C0.0257662 15.6123 0.0184044 15.7154 0.0110427 15.8221C0.00368088 15.9289 0.00368088 16.032 0 16.1387V54.6113C0.0110427 55.0346 0.0662559 55.4579 0.169321 55.8702C0.379131 56.6947 0.784028 57.4677 1.33984 58.1081C1.89197 58.7486 2.5987 59.2566 3.38273 59.5842C3.77659 59.7461 4.18885 59.8639 4.60847 59.9302C4.71153 59.9486 4.81828 59.9596 4.92502 59.9707C5.03177 59.978 5.13483 59.9891 5.24158 59.9928H5.39986L5.47716 60.0001H21.3859C22.2289 60.0001 23.0828 59.8013 23.8411 59.4185C24.2202 59.2271 24.5773 58.9952 24.9012 58.7229C25.2251 58.4505 25.5196 58.1413 25.7735 57.8026C26.2815 57.1253 26.6349 56.3229 26.7821 55.4874C26.8005 55.3843 26.8152 55.2775 26.83 55.1708C26.8447 55.0641 26.852 54.961 26.8594 54.8542C26.8668 54.7475 26.8668 54.6444 26.8705 54.5377V16.0651Z" fill="#E32029"/>
<path fill-rule="evenodd" clip-rule="evenodd" d="M23.4768 25.871V54.6408C23.4768 54.6812 23.4768 54.718 23.4731 54.7585C23.4694 54.7953 23.4694 54.8358 23.462 54.8726C23.4584 54.9095 23.451 54.9499 23.4436 54.9868C23.3921 55.2886 23.2596 55.5757 23.0756 55.8223C22.9798 55.9438 22.8731 56.0579 22.7516 56.1573C22.6338 56.2567 22.4977 56.3413 22.3615 56.4113C22.0817 56.5511 21.7762 56.6174 21.4596 56.6211H5.37786H5.31897C5.27848 56.6211 5.24167 56.6137 5.20118 56.6137C5.16437 56.6063 5.12388 56.6027 5.08339 56.599C4.92879 56.5732 4.78156 56.5327 4.638 56.4738C4.35089 56.356 4.08955 56.172 3.88342 55.9364C3.67729 55.7045 3.53006 55.4211 3.45276 55.1266C3.41595 54.9794 3.39386 54.8248 3.39386 54.6702V54.6408V16.4111C3.39386 16.3706 3.39386 16.3338 3.39754 16.2933C3.40122 16.2565 3.40122 16.216 3.40859 16.1792C3.41227 16.1424 3.41963 16.1019 3.42699 16.0651C3.47852 15.7633 3.61104 15.4761 3.79508 15.2258C3.89078 15.1044 3.99753 14.9903 4.119 14.8909C4.23679 14.7915 4.37298 14.7068 4.50917 14.6369C4.78892 14.497 5.09443 14.4308 5.41099 14.4271H21.4928H21.5517C21.5922 14.4271 21.629 14.4345 21.6695 14.4345C21.7063 14.4418 21.7468 14.4455 21.7872 14.4492C21.9418 14.4749 22.0891 14.5154 22.2326 14.5743C22.5197 14.6921 22.7811 14.8762 22.9872 15.1117C23.1933 15.3436 23.3406 15.6271 23.4179 15.9215C23.4547 16.0688 23.4768 16.2234 23.4768 16.378V16.4074V25.8673V25.871ZM24.662 16.3632C24.6583 16.1166 24.6252 15.8737 24.5663 15.6381C24.4412 15.1633 24.2093 14.7179 23.8817 14.3498C23.5577 13.978 23.1455 13.6872 22.6854 13.4958C22.4572 13.4038 22.2179 13.3376 21.9713 13.2971C21.9087 13.286 21.8498 13.2823 21.7872 13.2713C21.7247 13.2676 21.6621 13.2603 21.5995 13.2603H21.5075H21.4596H5.41099C4.91407 13.2603 4.42083 13.3744 3.97912 13.5952C3.75827 13.7056 3.54846 13.8382 3.35705 13.9964C3.16933 14.1547 2.99633 14.3314 2.84541 14.5265C2.55094 14.9203 2.34481 15.3768 2.26015 15.859C2.24911 15.9179 2.23807 15.9804 2.23438 16.0393C2.22334 16.0982 2.22334 16.1608 2.21598 16.2234C2.2123 16.2859 2.2123 16.3448 2.20862 16.4074V54.4825C2.20862 54.5524 2.20862 54.6334 2.20862 54.6886C2.2123 54.9352 2.24543 55.1782 2.30432 55.4137C2.42947 55.8886 2.66137 56.334 2.98897 56.702C3.31288 57.0738 3.72514 57.3646 4.18525 57.556C4.41347 57.648 4.65273 57.7143 4.89934 57.7548C4.96192 57.7658 5.02081 57.7695 5.08339 57.7805C5.14596 57.7842 5.20854 57.7916 5.27111 57.7916H5.36314H5.41099H21.4596C21.9566 57.7916 22.4498 57.6775 22.8915 57.4566C23.1124 57.3462 23.3222 57.2137 23.5136 57.0554C23.7013 56.8971 23.8743 56.7204 24.0252 56.5254C24.3197 56.1315 24.5258 55.6751 24.6105 55.1929C24.6215 55.134 24.6326 55.0714 24.6362 55.0125C24.6473 54.9536 24.6473 54.891 24.6547 54.8285C24.6583 54.7659 24.6546 54.707 24.662 54.6444V16.5657C24.662 16.4958 24.662 16.4148 24.662 16.3596V16.3632Z" fill="#E32029"/>
<path d="M17.3002 53.0063H9.57031V54.1106H17.3002V53.0063Z" fill="#E32029"/>
<path fill-rule="evenodd" clip-rule="evenodd" d="M34.1696 4.83461C31.1144 1.61752 26.7857 -0.141947 22.284 0.00896967C21.9601 0.0200123 21.7061 0.285036 21.7171 0.601592C21.7282 0.918148 21.9969 1.16477 22.3245 1.15372C26.4839 1.01385 30.485 2.63712 33.3082 5.61128C36.1388 8.59279 37.4897 12.6234 37.0112 16.6613C36.9744 16.9742 37.2063 17.2576 37.5265 17.2944C37.5486 17.2944 37.5707 17.2981 37.5928 17.2981C37.8873 17.2981 38.1412 17.0846 38.1744 16.7901C38.6897 12.4172 37.2284 8.05906 34.1659 4.83093L34.1696 4.83461Z" fill="#E32029"/>
<path fill-rule="evenodd" clip-rule="evenodd" d="M22.6411 3.68988C22.3246 3.70092 22.0743 3.9733 22.0853 4.29722C22.0964 4.62114 22.3614 4.87512 22.6816 4.86408C25.6079 4.76101 28.4238 5.9573 30.4078 8.14375C32.3992 10.3376 33.3488 13.3043 33.0139 16.2785C32.977 16.6024 33.2053 16.8932 33.5218 16.93C33.5439 16.93 33.566 16.9337 33.5881 16.9337C33.8752 16.9337 34.1255 16.7128 34.1586 16.4147C34.5341 13.1019 33.474 9.79646 31.2544 7.34868C29.0422 4.90825 25.9024 3.57577 22.6411 3.68988Z" fill="#E32029"/>
<path fill-rule="evenodd" clip-rule="evenodd" d="M22.6743 7.73146C22.3541 7.7241 22.0927 7.98176 22.0854 8.30936C22.078 8.63328 22.332 8.90567 22.6522 8.90935C24.4374 8.94616 26.0865 9.70074 27.2975 11.0369C28.5122 12.3767 29.1232 14.1178 29.0165 15.9398C28.9981 16.2638 29.241 16.5435 29.5576 16.5619C29.5686 16.5619 29.5796 16.5619 29.5907 16.5619C29.8925 16.5619 30.1502 16.319 30.1686 16.0061C30.2937 13.8601 29.5723 11.8099 28.1441 10.2345C26.7159 8.66273 24.7761 7.77195 22.6743 7.72778V7.73146Z" fill="#E32029"/>
</svg>
