<svg width="59" height="75" viewBox="0 0 59 75" fill="none" xmlns="http://www.w3.org/2000/svg">
<path fill-rule="evenodd" clip-rule="evenodd" d="M39.9502 45.3125C38.8901 47.6873 37.3301 49.8445 35.3905 51.5897C34.423 52.4599 33.3629 53.2284 32.2334 53.8811C31.1085 54.5338 29.9142 55.0662 28.6735 55.4689C28.0579 55.668 27.4283 55.8392 26.7895 55.9735C26.1506 56.1077 25.5072 56.2096 24.8591 56.279C23.5629 56.4132 22.2482 56.4132 20.9567 56.279C19.6605 56.1448 18.3829 55.8716 17.1469 55.4689C15.9109 55.0662 14.7166 54.5338 13.5871 53.8811C12.4622 53.2284 11.4021 52.4599 10.43 51.5897C9.45784 50.724 8.58756 49.7426 7.81912 48.6918C6.28686 46.5855 5.20363 44.1598 4.66202 41.6138C4.12041 39.0724 4.12041 36.3967 4.66202 33.8553C5.20363 31.3093 6.28686 28.8836 7.81912 26.7773C8.58756 25.7265 9.45784 24.7451 10.43 23.8748C11.3975 23.0045 12.4575 22.2361 13.5871 21.5834C15.8415 20.2779 18.3644 19.4539 20.9567 19.1855C21.6048 19.116 22.2575 19.0836 22.9102 19.0836C23.5629 19.0836 24.2156 19.116 24.8637 19.1855C26.1599 19.3197 27.4375 19.5928 28.6735 19.9956C29.9095 20.3983 31.1038 20.9306 32.2334 21.5834C33.3583 22.2361 34.4183 23.0045 35.3905 23.8748C36.358 24.7451 37.2375 25.7218 38.0013 26.7773C38.7651 27.8327 39.4225 28.9623 39.9502 30.152C41.0103 32.5267 41.5658 35.1237 41.5611 37.7345C41.5611 40.3454 41.0103 42.9424 39.9502 45.3171V45.3125ZM41.3065 29.5409C40.1631 26.9763 38.4781 24.6479 36.3857 22.7684C35.1821 21.6852 33.8443 20.7455 32.4139 19.9817C32.1824 19.8567 31.951 19.741 31.7149 19.6252C30.877 19.2179 30.016 18.8707 29.1318 18.579C27.1274 17.9263 25.0165 17.593 22.9056 17.593C22.202 17.593 21.5029 17.6301 20.8039 17.7041C19.6235 17.8245 18.4523 18.0559 17.3135 18.3892C16.1748 18.7179 15.0638 19.153 13.9991 19.6761C13.7259 19.8104 13.4528 19.9539 13.189 20.102C13.0732 20.1668 12.9621 20.227 12.8464 20.2965C12.24 20.6483 11.6474 21.0325 11.0781 21.4445C10.5087 21.8565 9.96242 22.3009 9.43933 22.7684C8.39313 23.7035 7.44878 24.7636 6.62479 25.8978C4.97218 28.1707 3.79637 30.7908 3.21309 33.5451C2.62982 36.2949 2.62982 39.1742 3.21309 41.9193C3.79637 44.669 4.96755 47.2892 6.62479 49.5621C7.03679 50.1315 7.48119 50.6777 7.94873 51.2008C8.41628 51.7239 8.91623 52.2239 9.43933 52.6914C10.3744 53.5293 11.3882 54.2838 12.4622 54.9365C12.5872 55.0152 12.7168 55.0893 12.8464 55.1634C13.2538 55.3995 13.6704 55.6217 14.0916 55.8253C16.1933 56.853 18.4755 57.5104 20.8086 57.7511C21.5076 57.8251 22.2066 57.8622 22.9102 57.8622C25.0211 57.8622 27.132 57.5335 29.1364 56.8762C29.9651 56.6077 30.7752 56.2836 31.5621 55.9087C32.1269 55.6402 32.6824 55.3439 33.2194 55.0199C34.3489 54.3486 35.409 53.5663 36.3904 52.6868C37.4366 51.747 38.3809 50.6962 39.2049 49.5574C40.0289 48.4187 40.7372 47.1966 41.3112 45.9143C42.4592 43.3497 43.0564 40.5398 43.0517 37.7253C43.0517 34.9107 42.4592 32.1008 41.3112 29.5363L41.3065 29.5409Z" fill="#E41E27"/>
<path fill-rule="evenodd" clip-rule="evenodd" d="M45.4959 35.5124C45.6487 35.605 45.7922 35.7161 45.9218 35.8411C46.1255 36.0448 46.2875 36.2855 46.394 36.5494C46.5051 36.8132 46.5606 37.091 46.5606 37.3826C46.5606 37.6743 46.5051 37.952 46.394 38.2159C46.2875 38.4751 46.1255 38.7204 45.9218 38.9195C45.8107 39.0306 45.6904 39.1278 45.5607 39.2111C45.5931 38.7251 45.607 38.239 45.607 37.7576C45.607 37.0123 45.57 36.2624 45.4959 35.5171V35.5124ZM49.065 39.3176C48.8104 39.9287 48.4355 40.4888 47.9633 40.9563C47.4957 41.4239 46.931 41.7988 46.3199 42.0535C45.9403 42.2108 45.5376 42.3219 45.1302 42.3821C45.2321 41.8822 45.32 41.3822 45.3895 40.8776C45.5191 40.8406 45.6487 40.7943 45.7737 40.7434C46.2134 40.5629 46.6208 40.2897 46.9587 39.9518C47.2967 39.6139 47.5698 39.2111 47.7503 38.7714C47.9355 38.3316 48.0281 37.8548 48.0281 37.378C48.0281 36.9012 47.9355 36.4244 47.7503 35.9846C47.5698 35.5448 47.2967 35.1421 46.9587 34.8042C46.6208 34.4662 46.2134 34.1978 45.7737 34.0126C45.607 33.9431 45.4404 33.8876 45.2645 33.8459C45.2182 33.5728 45.1673 33.2951 45.1071 33.0219C45.0608 32.7997 45.0052 32.5729 44.9543 32.3507C45.4219 32.4063 45.8848 32.522 46.3199 32.7025C46.9356 32.9571 47.4957 33.3321 47.9633 33.7996C48.4308 34.2672 48.8104 34.8273 49.065 35.4384C49.3196 36.0494 49.4492 36.716 49.4492 37.3734C49.4492 38.0307 49.3196 38.6973 49.065 39.3084V39.3176ZM42.2925 46.4049C41.0797 49.1176 39.2928 51.5757 37.0801 53.5616C36.5292 54.0569 35.9506 54.5244 35.3488 54.9596L34.2887 55.6771C33.7702 56.0104 33.2379 56.3159 32.6916 56.6029C32.1639 56.8807 31.6223 57.1353 31.0714 57.3668C30.5206 57.5982 29.9651 57.8065 29.3957 57.9917C27.2709 58.6814 25.035 59.0333 22.8037 59.0333C22.0584 59.0333 21.3131 58.9962 20.5771 58.9175C18.4245 58.6953 16.309 58.1398 14.3231 57.2788C13.7815 57.0427 13.2491 56.7881 12.726 56.5057C12.527 56.3993 12.3325 56.2928 12.1381 56.1817C11.8048 55.9919 11.4762 55.7882 11.1567 55.5799C10.8327 55.3669 10.5087 55.1447 10.1939 54.9179C9.61522 54.4967 9.05972 54.0476 8.52737 53.5708C7.41637 52.5802 6.42109 51.4646 5.54618 50.2656C4.67127 49.0667 3.92134 47.7705 3.31492 46.4141C2.7085 45.0578 2.24095 43.6366 1.93543 42.1831C1.31512 39.276 1.31512 36.2438 1.93543 33.3367C2.55111 30.4296 3.79635 27.6567 5.54618 25.2588C6.42109 24.0599 7.41637 22.9442 8.52737 21.9536C9.63374 20.9629 10.8466 20.0834 12.1335 19.3381C12.3048 19.2409 12.4761 19.1437 12.6473 19.0511C13.1797 18.7641 13.7213 18.5002 14.2722 18.2595C16.2673 17.3892 18.4014 16.8245 20.5678 16.6023C23.5305 16.2921 26.558 16.6023 29.391 17.5281C30.0252 17.7318 30.6502 17.9679 31.2612 18.2317C31.8028 18.4678 32.3398 18.7224 32.8583 19.0048C33.3953 19.2918 33.9184 19.602 34.4322 19.9306C34.8998 20.2315 35.3534 20.5509 35.7932 20.8889C36.233 21.2268 36.6588 21.5786 37.0755 21.949C38.1818 22.9396 39.1817 24.0506 40.0567 25.2542C40.9316 26.4531 41.6815 27.7493 42.2879 29.1057C43.5054 31.8184 44.135 34.7903 44.135 37.7576C44.135 40.7249 43.5054 43.6968 42.2879 46.4095L42.2925 46.4049ZM14.5638 58.9546C16.4433 59.6813 18.4199 60.1628 20.4243 60.3664C22.0075 60.5331 23.6046 60.5331 25.1878 60.3664C26.7709 60.1998 28.3356 59.8711 29.854 59.3758C30.1687 59.274 30.4789 59.1675 30.7891 59.0471L30.2011 62.5422L29.5114 66.6529L29.3401 67.6805L29.2522 68.1944L29.2105 68.449C29.2105 68.4768 29.2012 68.4768 29.2012 68.4906L29.192 68.5231L29.1781 68.5879L29.1642 68.6527V68.6851L29.1457 68.7175C29.1272 68.7638 29.1133 68.8054 29.0994 68.8517C29.0901 68.898 29.067 68.9397 29.0485 68.986C29.03 69.0323 29.0115 69.0739 28.9929 69.1202C28.9004 69.2869 28.8078 69.4581 28.6828 69.6063C28.567 69.7637 28.4235 69.8933 28.28 70.0229C28.2384 70.0507 28.2013 70.0785 28.1643 70.1109L28.1088 70.1572C28.1088 70.1572 28.0671 70.1803 28.0486 70.1942C28.0069 70.2173 27.9653 70.2451 27.9282 70.2729C27.8866 70.3007 27.8403 70.3145 27.7986 70.3377C27.7153 70.3886 27.6227 70.4164 27.5347 70.458C27.4931 70.4812 27.4422 70.4904 27.4005 70.5043C27.3542 70.5182 27.3079 70.5367 27.2616 70.5506C27.0718 70.5923 26.8867 70.634 26.6922 70.634H26.6182L26.5811 70.6386H18.9384C18.7717 70.6386 18.5542 70.6386 18.4893 70.634C18.4431 70.634 18.3921 70.634 18.3458 70.6293L18.2023 70.6062C18.1051 70.6016 18.0125 70.5691 17.92 70.5506C17.8737 70.5414 17.8274 70.5275 17.7811 70.509C17.7348 70.4951 17.6885 70.4812 17.6422 70.4673C17.5959 70.4488 17.5543 70.4256 17.508 70.4071C17.4617 70.3886 17.4154 70.3747 17.3783 70.3469C17.3367 70.3238 17.295 70.3007 17.2487 70.2821L17.2163 70.2682L17.1839 70.2451L17.1237 70.2034C17.0821 70.1757 17.0404 70.1525 17.0034 70.1247C16.9663 70.0923 16.9293 70.0646 16.8877 70.0368L16.8275 69.9951L16.7766 69.9442C16.7441 69.9118 16.7071 69.8794 16.6701 69.847C16.6377 69.8146 16.6053 69.7729 16.5729 69.7405C16.5405 69.7035 16.5034 69.6757 16.4803 69.634C16.2396 69.3332 16.0637 68.986 15.9664 68.611C15.9572 68.5693 15.9479 68.523 15.9387 68.4814L15.9248 68.4166V68.4027L15.9155 68.3703L15.9063 68.3055L15.8322 67.787L15.6841 66.7547L15.0915 62.6255L14.5638 58.9453V58.9546ZM33.0481 63.0421L32.3537 67.1621L32.1824 68.1944L32.0945 68.7082L32.0528 68.9675C32.0343 69.06 32.0065 69.1619 31.9834 69.2591C31.8954 69.6526 31.7473 70.0229 31.5853 70.3886C31.4001 70.7404 31.201 71.0876 30.9464 71.3978C30.7057 71.7172 30.4141 71.9949 30.1132 72.2542L29.8771 72.4347L29.7567 72.5227C29.7151 72.5504 29.6734 72.5782 29.6318 72.606L29.3772 72.768C29.2938 72.8189 29.2012 72.8606 29.1133 72.9115C28.9374 73.0087 28.7522 73.0828 28.567 73.1569C28.4745 73.1985 28.3773 73.2263 28.2847 73.2541C28.1875 73.2818 28.0949 73.3142 27.9977 73.342C27.6088 73.4346 27.2153 73.5087 26.8126 73.5179H26.6645C26.6182 73.5272 26.5626 73.5272 26.521 73.5272H18.9337C18.7578 73.5272 18.5958 73.5272 18.3875 73.5179L18.0912 73.504C17.9894 73.4948 17.8922 73.4809 17.795 73.467C17.5959 73.4485 17.4015 73.3976 17.2071 73.3513C17.1098 73.3328 17.0126 73.3004 16.9201 73.268L16.633 73.1754L16.3553 73.0596C16.2627 73.0226 16.1701 72.9856 16.0822 72.9347L15.8183 72.7958L15.7535 72.7587L15.5637 72.6384C15.4804 72.5828 15.3924 72.5319 15.3137 72.4717L15.0776 72.2866L14.9619 72.194L14.8508 72.0921L14.6332 71.8885C14.5638 71.819 14.499 71.7403 14.4296 71.6709C14.3648 71.5968 14.2907 71.5274 14.2351 71.4441C13.7352 70.8191 13.3695 70.0923 13.1704 69.3193L13.1102 69.023C13.0917 68.9258 13.0686 68.8193 13.0593 68.7406L12.9853 68.2222L12.8371 67.1898L12.2446 63.056L11.4437 57.4547C11.9483 57.7463 12.4668 58.0195 12.9945 58.2694L13.6519 62.8477L14.2444 66.9769L14.3925 68.0092L14.4666 68.5277C14.4759 68.6203 14.4944 68.6851 14.5083 68.7591L14.5545 68.9721C14.7027 69.5461 14.9758 70.0877 15.3461 70.5553C15.3878 70.6154 15.4433 70.6664 15.4943 70.7219C15.5452 70.7775 15.5915 70.833 15.647 70.8886L15.8091 71.0413L15.8924 71.12L15.9803 71.1895L16.1562 71.3283C16.2164 71.3746 16.2812 71.4117 16.3414 71.4533L16.434 71.5135L16.4803 71.5459L16.5312 71.5737L16.7303 71.6801C16.7951 71.7172 16.8645 71.7449 16.9339 71.7727L17.1423 71.8607L17.3552 71.9301C17.4246 71.9533 17.4941 71.9764 17.5681 71.9903C17.7116 72.0227 17.8551 72.0597 18.0079 72.0736C18.082 72.0829 18.156 72.0968 18.2301 72.1014L18.4523 72.1107C18.5912 72.1199 18.781 72.1153 18.9523 72.1199H26.5395C26.5858 72.1199 26.6182 72.1199 26.6552 72.1199H26.7663C27.0626 72.1107 27.3588 72.0505 27.6505 71.981C27.7199 71.9625 27.794 71.9348 27.8634 71.9162C27.9329 71.8931 28.0069 71.8746 28.0717 71.8422C28.2106 71.7866 28.3495 71.7311 28.4791 71.657C28.5439 71.62 28.6133 71.5922 28.6782 71.5505L28.8679 71.4302C28.9004 71.4117 28.9328 71.3931 28.9605 71.37L29.0485 71.3006L29.229 71.1663C29.4512 70.9673 29.6734 70.7636 29.8493 70.5275C30.0391 70.296 30.1873 70.0368 30.3261 69.7776L30.4141 69.5739C30.4419 69.5044 30.4743 69.4396 30.4974 69.3656L30.5669 69.1526L30.5854 69.1017L30.5993 69.0461L30.6224 68.9397C30.6409 68.8656 30.6548 68.8008 30.6733 68.7221L30.715 68.4629L30.8029 67.949L30.9742 66.9214L31.6686 62.806L32.4139 58.3898C32.9509 58.1398 33.474 57.8713 33.9924 57.5843L33.0712 63.0514L33.0481 63.0421ZM31.0205 16.5421C30.6363 16.394 30.2428 16.2551 29.8493 16.1255C28.3356 15.6348 26.7663 15.3015 25.1831 15.1394C23.6 14.9728 22.0029 14.9728 20.4197 15.1394C18.4199 15.3478 16.4433 15.8246 14.5684 16.5513L15.286 12.3481L15.9803 8.27439L16.1516 7.25597L16.2396 6.74676L16.2627 6.61714L16.272 6.55233V6.51993C16.272 6.51993 16.2812 6.51067 16.2812 6.50141C16.2951 6.45975 16.3044 6.41809 16.3136 6.37643L16.3275 6.31162C16.3275 6.31162 16.3414 6.26533 16.3507 6.24681C16.3646 6.20052 16.3831 6.15886 16.397 6.11256C16.4016 6.08942 16.4108 6.06627 16.4247 6.04776L16.4525 5.98295C16.471 5.94128 16.4849 5.89499 16.5081 5.85333C16.5312 5.81167 16.5544 5.77 16.5775 5.72834L16.6099 5.66353L16.6516 5.60335C16.6793 5.56632 16.7025 5.52466 16.7303 5.483C16.758 5.44596 16.7904 5.40893 16.8182 5.3719C16.8738 5.2932 16.9432 5.22839 17.008 5.15895C17.0358 5.12192 17.0774 5.09415 17.1145 5.06174C17.1515 5.02934 17.1839 4.99693 17.221 4.96453C17.258 4.93675 17.2996 4.90898 17.3367 4.87657L17.3922 4.83028L17.4524 4.79325C17.4941 4.7701 17.5311 4.74233 17.5728 4.71455C17.6144 4.69141 17.6561 4.67289 17.6978 4.64975C17.7811 4.59882 17.869 4.57105 17.957 4.52939C17.9987 4.50624 18.0496 4.49698 18.0912 4.4831L18.2255 4.4368C18.4106 4.39514 18.6004 4.35348 18.7902 4.35348H18.8597L18.8967 4.34885C18.9106 4.34885 18.9152 4.34885 18.943 4.34885H26.72C26.8033 4.34885 26.9098 4.34885 26.9422 4.34885C27.3264 4.35811 27.7014 4.44606 28.0486 4.60345C28.3911 4.7701 28.7013 5.01082 28.9513 5.29783C28.9698 5.31172 28.9837 5.33486 28.9976 5.35338L29.0392 5.40893C29.067 5.44596 29.0994 5.483 29.1272 5.52466C29.1503 5.56632 29.1781 5.60798 29.2012 5.64502L29.2429 5.7052L29.2753 5.77C29.2985 5.81167 29.317 5.85333 29.3401 5.89499C29.3633 5.93666 29.3725 5.98295 29.3957 6.02924L29.4234 6.09405C29.4234 6.09405 29.442 6.13571 29.4466 6.15886C29.4605 6.20515 29.4744 6.25144 29.4883 6.2931L29.5114 6.36254L29.5253 6.42735C29.5345 6.47364 29.5438 6.5153 29.5531 6.55696V6.57548C29.5531 6.57548 29.5577 6.58474 29.5623 6.59863L29.5716 6.66343L29.5901 6.79305L29.6271 7.04766L29.7753 8.0707L30.3724 12.1583L31.0113 16.5375L31.0205 16.5421ZM12.439 11.8481L13.1334 7.76518L13.3047 6.74676L13.3926 6.23755L13.4158 6.10793L13.425 6.04313C13.425 6.04313 13.4297 6.00146 13.4389 5.97369L13.5084 5.68205L13.5454 5.53855C13.5546 5.49225 13.5732 5.44596 13.5917 5.39504L13.6843 5.11266C13.6982 5.06637 13.7167 5.02008 13.7398 4.97379L13.8 4.83954C13.8417 4.75159 13.8787 4.659 13.9204 4.57105L14.0592 4.31182L14.1287 4.1822L14.2074 4.05721L14.3694 3.80724C14.4249 3.72854 14.4897 3.64984 14.5499 3.57115C14.6656 3.41376 14.8092 3.27025 14.9434 3.12675C15.0082 3.05268 15.0869 2.98787 15.1563 2.92306C15.2304 2.85826 15.3045 2.78882 15.3785 2.72864L15.6146 2.5481L15.735 2.46015L15.86 2.38145L16.1099 2.22406C16.1933 2.17314 16.2859 2.13148 16.3738 2.08518C16.5451 1.98797 16.7303 1.91853 16.9154 1.83984C17.008 1.79818 17.1006 1.77503 17.1978 1.74263C17.2904 1.71485 17.3876 1.68245 17.4802 1.65467C17.8644 1.56209 18.2579 1.48802 18.6514 1.47876C18.7486 1.47876 18.8504 1.4695 18.943 1.4695H26.72C26.808 1.4695 26.8867 1.4695 26.9931 1.4695C27.7847 1.48339 28.5717 1.66856 29.2892 2.00186C30.0021 2.34442 30.6409 2.83511 31.1594 3.4369C31.6732 4.03869 32.0482 4.75622 32.2704 5.5154L32.312 5.65891L32.3445 5.80704L32.4046 6.09868C32.4046 6.12182 32.4139 6.1496 32.4185 6.17274L32.4278 6.23755L32.4463 6.36717L32.4833 6.62177L32.6315 7.64482L33.2286 11.7416L34.1498 18.0466C33.6406 17.7549 33.1222 17.4818 32.5944 17.2318L31.8214 11.9546L31.2242 7.86239L31.0761 6.83934L31.039 6.58474L31.0205 6.45512L31.0113 6.39031C31.0113 6.39031 31.002 6.35328 30.9974 6.33476L30.9511 6.12182L30.9279 6.01535L30.8955 5.90888C30.7335 5.34412 30.4558 4.81177 30.0715 4.36274C29.6873 3.91834 29.2105 3.548 28.6782 3.2934C28.1412 3.04342 27.5579 2.90918 26.9654 2.89529C26.8959 2.89066 26.8033 2.89529 26.72 2.89529H18.943C18.8643 2.89529 18.7949 2.90455 18.7162 2.90455C18.4199 2.90918 18.1283 2.96936 17.8413 3.03416C17.7718 3.05268 17.7024 3.08046 17.6283 3.09897C17.5589 3.12212 17.4848 3.14064 17.42 3.17304C17.2858 3.22859 17.1469 3.27951 17.0173 3.35358C16.9525 3.39061 16.8877 3.41839 16.8228 3.45542L16.6377 3.57578L16.5451 3.63596L16.4571 3.70077L16.2812 3.83501C16.2257 3.8813 16.1701 3.93222 16.1146 3.98314C16.059 4.03407 16.0035 4.08036 15.9526 4.13591C15.8507 4.24701 15.7442 4.34885 15.6609 4.46921C15.6146 4.52939 15.5683 4.58494 15.5267 4.64512L15.4063 4.83028L15.3461 4.92287L15.2952 5.02008L15.1887 5.2145C15.1563 5.27931 15.1286 5.34875 15.1008 5.41819L15.0545 5.52003C15.0406 5.55243 15.0267 5.58947 15.0128 5.62187L14.9434 5.83018C14.9341 5.86722 14.9203 5.89962 14.911 5.93666L14.8878 6.04313L14.8369 6.25607C14.8369 6.25607 14.8277 6.2931 14.8277 6.31625L14.8184 6.38106L14.7953 6.51067L14.7073 7.01988L14.536 8.0383L13.8417 12.1166L12.9621 17.2689C12.4344 17.5235 11.9113 17.7966 11.4021 18.0882L11.3743 18.1021L12.439 11.8666V11.8481ZM50.426 34.8829C50.0973 34.0913 49.6113 33.3691 49.0095 32.7673C48.403 32.1655 47.6809 31.6795 46.8893 31.3508C46.144 31.0407 45.3385 30.8786 44.5377 30.8555C44.2831 30.0546 43.9822 29.2677 43.6396 28.4992C42.3435 25.5967 40.4316 22.972 38.0661 20.8518C37.3486 20.2084 36.594 19.6112 35.8024 19.0696L34.6961 11.5148L34.0989 7.41799L33.9508 6.39494L33.9137 6.14034L33.8952 6.01072L33.886 5.94591C33.886 5.94591 33.886 5.91814 33.8767 5.90425L33.8675 5.85796C33.8443 5.73297 33.8165 5.60798 33.7888 5.483L33.7471 5.29783L33.6962 5.11729C33.4184 4.15905 32.9416 3.25174 32.2935 2.49255C31.6455 1.73337 30.8353 1.11306 29.9327 0.682546C29.0253 0.256662 28.0254 0.0252033 27.0255 0.00205741C26.882 -0.00257176 26.8172 0.00205741 26.7293 0.00205741H18.9523C18.9523 0.00205741 18.8967 0.00205741 18.8689 0.00205741H18.7764L18.5912 0.0113158C18.0912 0.0298324 17.5959 0.117787 17.1098 0.238145C16.9895 0.270549 16.8691 0.312212 16.7488 0.349245C16.6284 0.386279 16.5081 0.423312 16.3923 0.474233C16.1609 0.566816 15.9294 0.6594 15.7072 0.779758C15.5961 0.835308 15.485 0.890858 15.3785 0.955667L15.0591 1.15472L14.9017 1.25656L14.7536 1.36766L14.4573 1.59449C14.3601 1.67319 14.2675 1.75651 14.175 1.83984C14.0824 1.92316 13.9852 2.00649 13.9018 2.09907C13.7306 2.27961 13.5546 2.46015 13.4065 2.6592C13.3278 2.75641 13.2491 2.85363 13.1797 2.95547L12.9714 3.26562L12.8695 3.42302L12.7769 3.58967L12.601 3.91834C12.5455 4.02944 12.4992 4.14517 12.4483 4.26089L12.3742 4.43217C12.3511 4.48772 12.3279 4.5479 12.3048 4.60808L12.1844 4.96453C12.1659 5.02471 12.1428 5.08026 12.1289 5.14507L12.0826 5.33023C12.0502 5.45522 12.0224 5.58021 11.9946 5.7052L11.9854 5.75149V5.78389L11.9715 5.8487L11.9483 5.97832L11.8604 6.48753L11.6845 7.51057L10.9901 11.5981L9.70318 19.1576C8.95325 19.6853 8.2311 20.2547 7.54598 20.8657C6.36092 21.9258 5.29621 23.1155 4.36111 24.3978C2.49093 26.9624 1.15773 29.925 0.500385 33.0358C-0.161587 36.1466 -0.161587 39.3778 0.500385 42.4886C1.15773 45.5994 2.49093 48.5621 4.36111 51.1266C5.29621 52.4089 6.36092 53.5986 7.54598 54.6587C8.25888 55.2975 9.0088 55.89 9.79113 56.4317L10.7725 63.2828L11.365 67.4213L11.5132 68.4536L11.5873 68.9721L11.5965 69.0369V69.0693L11.6104 69.1156L11.6474 69.3054C11.6752 69.4304 11.6983 69.56 11.7261 69.685C11.9761 70.6617 12.4436 71.5829 13.0732 72.3699C13.1473 72.4717 13.2352 72.5597 13.3186 72.6569C13.4019 72.7495 13.4852 72.8421 13.5778 72.9347L13.8555 73.1939L13.9944 73.3235L14.1426 73.4392L14.4434 73.6707C14.5453 73.7448 14.6518 73.8096 14.7582 73.879L14.9156 73.9808L14.9943 74.0318L15.0776 74.0781L15.4109 74.254C15.522 74.3141 15.6378 74.3651 15.7535 74.4114C15.8692 74.4623 15.985 74.5086 16.1053 74.5549L16.4664 74.6752C16.5868 74.7122 16.7071 74.7539 16.8321 74.7817C17.0774 74.8372 17.3228 74.8974 17.5774 74.9252C17.7024 74.9437 17.8274 74.9576 17.9524 74.9715L18.332 74.99C18.619 75.0039 18.7486 74.9993 18.9291 74.9993H26.595H26.6876L26.8774 74.99C27.382 74.9761 27.8819 74.8835 28.3726 74.7632C28.493 74.7308 28.6133 74.6891 28.7337 74.6521C28.8541 74.615 28.9744 74.578 29.0901 74.5271C29.3216 74.4299 29.5577 74.3373 29.7799 74.2169C29.891 74.1568 30.0067 74.1012 30.1132 74.0364L30.4326 73.8373C30.4835 73.8049 30.5391 73.7725 30.59 73.7355L30.7428 73.6244L31.0437 73.3929C31.4232 73.0643 31.789 72.7125 32.0945 72.3143C32.4139 71.9255 32.6731 71.4857 32.9 71.0367L33.0527 70.6895C33.1036 70.5738 33.1546 70.458 33.1916 70.3377L33.312 69.9766L33.3397 69.8887L33.3629 69.7914L33.4092 69.6017L33.4555 69.4119L33.4786 69.3146C33.4832 69.2869 33.4925 69.2452 33.4971 69.2267L33.5388 68.9675L33.6267 68.4536L33.798 67.4213L34.4924 63.2967L35.6312 56.5474C36.4829 55.9687 37.293 55.3345 38.0615 54.6494C40.427 52.5293 42.3342 49.9045 43.635 47.002C44.084 45.9975 44.459 44.9559 44.7599 43.8912C45.4867 43.8496 46.2088 43.6875 46.8847 43.4052C47.6763 43.0765 48.403 42.5951 49.0048 41.9886C49.6113 41.3869 50.0973 40.6647 50.4214 39.8731C50.75 39.0815 50.9213 38.2251 50.9213 37.3734C50.9213 36.5216 50.7547 35.6652 50.4214 34.8736L50.426 34.8829Z" fill="#E41E27"/>
<path fill-rule="evenodd" clip-rule="evenodd" d="M55.6616 12.4547C52.5878 7.67278 47.6161 4.48791 42.0195 3.71484C41.626 3.65929 41.2649 3.93704 41.2093 4.33514C41.1538 4.73325 41.4315 5.09896 41.825 5.15451C47.0051 5.87203 51.6111 8.82081 54.458 13.2463C57.3142 17.6857 58.1058 23.1527 56.6291 28.2356C56.518 28.6198 56.7356 29.0225 57.1152 29.1382C57.1846 29.1568 57.2494 29.166 57.3189 29.166C57.629 29.166 57.916 28.9623 58.0086 28.6429C59.601 23.1481 58.7446 17.2505 55.6616 12.4547Z" fill="#E41E27"/>
<path fill-rule="evenodd" clip-rule="evenodd" d="M41.1029 8.80224C40.7002 8.74669 40.3345 9.02444 40.2789 9.42717C40.2234 9.82528 40.5058 10.191 40.9039 10.2465C44.6859 10.7604 48.0421 12.8805 50.1206 16.0654C52.2037 19.2595 52.7823 23.1851 51.7037 26.8421C51.5926 27.2263 51.8102 27.6337 52.1991 27.7448C52.2685 27.7633 52.3379 27.7726 52.4074 27.7726C52.7222 27.7726 53.0138 27.5643 53.111 27.2495C54.31 23.1851 53.6665 18.8198 51.3519 15.2692C49.042 11.7325 45.3109 9.37162 41.1076 8.80224H41.1029Z" fill="#E41E27"/>
<path fill-rule="evenodd" clip-rule="evenodd" d="M40.3946 15.3292C42.6397 15.7644 44.5655 17.0698 45.8107 19.0048C47.0606 20.9444 47.4633 23.2497 46.9402 25.4995C46.8476 25.8884 47.0884 26.2818 47.4772 26.3698C47.5328 26.3837 47.5883 26.3883 47.6439 26.3883C47.9725 26.3883 48.2688 26.1615 48.3475 25.8282C48.9585 23.1895 48.491 20.4861 47.0236 18.2132C45.5607 15.9495 43.3063 14.4173 40.6723 13.9034C40.2788 13.8294 39.9039 14.084 39.8252 14.4774C39.7511 14.8709 40.0057 15.2505 40.3946 15.3292Z" fill="#E41E27"/>
</svg>
