<svg width="67" height="75" viewBox="0 0 67 75" fill="none" xmlns="http://www.w3.org/2000/svg">
<path fill-rule="evenodd" clip-rule="evenodd" d="M65.2337 53.4045C65.2337 53.745 65.1923 54.0809 65.1141 54.4076L45.3652 43.2808C45.2456 42.5123 45.2456 41.7163 45.356 40.8742C45.5353 39.6363 46.1422 38.5733 46.9193 37.3171C47.2504 36.7741 47.586 36.3047 47.9401 35.8722C48.2942 35.4442 48.593 34.9979 48.9011 34.5377C48.9057 34.5285 48.9149 34.5193 48.9195 34.5101L49.3195 33.8382V33.829C49.8943 32.8397 50.2943 31.947 50.5748 31.0174C50.5748 31.0036 50.584 30.9898 50.584 30.976L50.6484 30.6815C50.7817 30.0787 50.8875 29.4621 50.9611 28.85C50.9611 28.8408 50.9611 28.8316 50.9611 28.8224L51.0254 28.0448C51.0254 28.0079 51.0254 27.9757 51.0254 27.9435C51.2783 27.7825 51.5037 27.58 51.6876 27.3453C51.9175 27.0462 52.0922 26.7011 52.175 26.3283C52.2256 26.1443 52.2393 25.9464 52.2531 25.7485L52.2761 25.2976L52.2991 24.8466L52.3083 24.6994V24.5521C52.3083 24.5015 52.3083 24.4509 52.3083 24.4049L52.2945 24.2622C52.2485 23.8849 52.129 23.5213 51.9313 23.2038C51.6968 22.8081 51.3565 22.4814 50.9565 22.2559C50.9151 22.2329 50.8921 22.1915 50.8967 22.1408C50.9013 22.0672 50.8967 21.989 50.8783 21.9062L50.6208 20.8708C50.6208 20.8708 50.6116 20.834 50.607 20.8156C50.2392 19.7204 49.761 18.6712 49.1908 17.6956C48.6068 16.7017 47.9171 15.7722 47.14 14.9347C46.3492 14.0787 45.4525 13.3103 44.4823 12.643C43.3282 11.8516 42.0499 11.2027 40.7854 10.7702C39.5991 10.3652 38.2794 10.0937 36.7483 9.93266C35.4056 9.79461 34.0492 9.78081 32.7157 9.89585C31.3685 10.0155 30.0304 10.264 28.7337 10.6413C27.4141 11.0233 26.1404 11.5478 24.9495 12.1967C23.7908 12.8271 22.6642 13.6232 21.5928 14.5619C21.0273 15.0589 20.5353 15.5467 20.1306 16.016L20.1214 16.0299C20.0755 16.0805 20.0341 16.1311 19.9881 16.1863C19.0823 17.2631 17.9557 19.5225 17.4775 20.7603C17.4591 20.7695 17.4453 20.7834 17.4269 20.7926L17.2936 20.7834C17.2936 20.7834 17.2476 20.7834 17.2246 20.7834H17.1419L16.9074 20.7742C16.8338 20.7742 16.7602 20.7742 16.6912 20.7788L16.259 20.811C16.1165 20.8294 15.9785 20.8616 15.8406 20.8846C15.7716 20.8984 15.7072 20.9214 15.6383 20.9398C15.5739 20.9582 15.5049 20.9766 15.4406 20.9996C15.3164 21.0502 15.1877 21.0963 15.0727 21.1653L14.9853 21.2113L14.9026 21.2665L14.8198 21.3217L14.7416 21.3816C14.6865 21.4184 14.6405 21.4644 14.5945 21.5104C14.5715 21.5334 14.5485 21.5564 14.5255 21.584C14.5117 21.5978 14.5025 21.6117 14.4933 21.6209L14.4658 21.6531C14.3048 21.8325 14.1991 22.0488 14.1577 22.2835C14.1439 22.3755 14.1255 22.4722 14.1117 22.5642C14.0979 22.6746 14.0795 22.7805 14.0703 22.8909L14.0381 23.2222L14.0105 23.5535C14.0105 23.6088 14.0013 23.6686 14.0013 23.7146V23.8066C13.9921 23.9309 13.9876 24.0551 13.983 24.1794C13.9692 24.6763 13.983 25.1733 14.0151 25.6703C14.0795 26.5584 14.2221 27.4557 14.4795 28.3393C14.6083 28.781 14.7646 29.2228 14.9578 29.6553C15.0497 29.8716 15.1555 30.0833 15.2658 30.295L15.4406 30.6079C15.4681 30.6585 15.5049 30.7091 15.5325 30.7597L15.6613 30.9714C15.6613 30.9714 15.6521 30.9806 15.6521 30.9852L15.2566 31.5006C15.1279 31.6709 14.9807 31.8365 14.829 32.016C14.4658 32.4347 14.0887 32.8627 13.8634 33.4379C13.8634 33.4425 13.8634 33.4471 13.8588 33.4517C13.4818 34.4687 13.7714 35.5869 14.5807 36.2541C14.6313 36.3093 14.6865 36.3553 14.7554 36.3922L15.0681 36.5716C15.0681 36.5716 15.1095 36.5946 15.1325 36.6038C15.4038 36.7281 15.6843 36.8523 15.9877 36.9536C16.3418 37.0732 16.6683 37.2573 16.9349 37.5242C17.4683 38.0534 17.8822 38.7804 17.8316 39.6041C17.8132 39.756 17.7902 39.9124 17.7672 40.0735C17.6752 40.7131 17.5833 41.3757 17.7074 42.0798C17.7074 42.089 17.7074 42.0936 17.7074 42.1028C17.8546 42.7977 18.0937 43.4051 18.4247 43.9113L1.83011 54.3662C1.65538 53.8922 1.55882 53.3814 1.55422 52.8661L1.43467 21.4138C1.43467 21.0364 1.48065 20.6683 1.57261 20.3094L10.0194 24.6073C10.1251 24.6579 10.2355 24.6856 10.3412 24.6856C10.6033 24.6856 10.8562 24.5383 10.9804 24.2898C11.1597 23.9355 11.0172 23.4983 10.6631 23.3189L2.15658 18.9887C2.53362 18.4181 3.04401 17.9395 3.65556 17.5944L31.5202 1.99482C32.8399 1.25395 34.417 1.25855 35.7367 1.99482L63.0219 17.3045C63.2289 17.4195 63.422 17.553 63.6059 17.6956L55.2695 22.5642C54.9247 22.7621 54.8097 23.2038 55.0074 23.5489C55.1408 23.779 55.3799 23.9079 55.6282 23.9079C55.7523 23.9079 55.8765 23.8757 55.9868 23.8112L64.4888 18.8461C64.5209 18.8277 64.5485 18.8092 64.5715 18.7862C64.9991 19.4673 65.2337 20.268 65.2337 21.1009V53.4045ZM18.9213 21.018C19.4455 19.7434 20.4295 17.8981 21.0871 17.1112C21.1238 17.0652 21.1652 17.0192 21.202 16.9778L21.2158 16.9594C21.5791 16.5406 22.0205 16.0989 22.5401 15.6479C23.5287 14.7782 24.5724 14.0465 25.6392 13.4667C26.7427 12.8639 27.9199 12.3807 29.1384 12.0264C30.3431 11.6767 31.5938 11.442 32.8445 11.3362C34.086 11.2257 35.3504 11.2395 36.6057 11.3684C38.0311 11.5156 39.2496 11.7687 40.3302 12.1369C41.4751 12.528 42.6339 13.1124 43.6776 13.8349C44.5605 14.4423 45.3743 15.1417 46.0917 15.9194C46.7998 16.6833 47.4251 17.5254 47.9539 18.4319C48.4689 19.3108 48.9011 20.2634 49.2368 21.2527L49.4023 21.9062H49.3839L48.9425 21.897L48.17 21.8832L46.625 21.8555L43.5351 21.8003L37.3552 21.6899L31.1753 21.5794L24.9955 21.469L21.9055 21.4138L21.133 21.4H20.9445C20.9169 21.4 20.8893 21.3954 20.8617 21.3908C20.8342 21.3908 20.8066 21.3862 20.779 21.3816L20.6318 21.354L19.1375 21.0641C19.0685 21.0502 18.9903 21.0364 18.9167 21.018H18.9213ZM18.9305 22.0856L20.4387 22.3755L20.5307 22.3939L20.6134 22.4077C20.664 22.4169 20.7192 22.4215 20.7698 22.4261C20.8204 22.4307 20.8755 22.4353 20.9261 22.4353H21.1192L21.8917 22.4538L24.9817 22.509L31.1615 22.6194L37.3414 22.7299L43.5213 22.8403L46.6112 22.8955L48.1562 22.9231L48.9287 22.9369L49.3333 22.9461C49.5035 22.9461 49.6782 22.9461 49.8437 22.9691C50.3495 23.0198 50.8323 23.3235 51.076 23.7744C51.2048 23.9953 51.2691 24.253 51.2783 24.5061C51.2783 24.5705 51.2783 24.6349 51.2783 24.6994C51.2783 24.7638 51.2783 24.8282 51.2691 24.8972L51.2508 25.2424L51.2324 25.5875C51.2232 25.7209 51.2186 25.8498 51.1956 25.9786C51.1588 26.2317 51.0484 26.4756 50.8967 26.6781C50.7404 26.8851 50.538 27.0462 50.3035 27.1566C50.1886 27.2119 50.0644 27.2487 49.9403 27.2763C49.8759 27.2855 49.8161 27.2993 49.7518 27.3039C49.6874 27.3085 49.623 27.3131 49.5586 27.3177L48.0551 27.3867L41.8798 27.672L35.7045 27.9573L29.5292 28.2426L23.3539 28.5279L22.9677 28.5463L22.7746 28.5555C22.7746 28.5555 22.747 28.5555 22.7332 28.5555H22.701C22.701 28.5555 22.655 28.5647 22.632 28.5647C22.4527 28.5924 22.278 28.6568 22.1308 28.7626C21.9791 28.8685 21.8595 29.0019 21.7676 29.163L21.671 29.3332C21.6342 29.3976 21.5928 29.4667 21.5515 29.5311C21.4687 29.6599 21.3721 29.7796 21.271 29.8946C21.0641 30.1247 20.825 30.3226 20.5629 30.479C20.4341 30.5619 20.2962 30.6263 20.1536 30.6907L20.0479 30.7321L19.9421 30.7689C19.9053 30.7827 19.8686 30.7919 19.8318 30.8057C19.795 30.815 19.7536 30.8288 19.726 30.838L18.9811 31.0404L18.5811 31.1509C18.4155 31.1969 18.25 31.2291 18.0799 31.2291C17.7672 31.2291 17.4545 31.1601 17.1786 31.0082C16.9028 30.8564 16.6729 30.6309 16.5073 30.364L16.4062 30.2029C16.3786 30.1569 16.351 30.1155 16.3234 30.0649L16.1671 29.7888C16.0705 29.6001 15.9739 29.4114 15.8912 29.2182C15.721 28.8316 15.5785 28.4359 15.4635 28.0356C15.229 27.2303 15.0957 26.4066 15.0359 25.5829C15.0037 25.1181 14.9945 24.6579 15.0037 24.1932C15.0037 24.0827 15.0129 23.9631 15.0175 23.8481L15.0267 23.6502L15.0451 23.4293C15.0681 23.1348 15.1049 22.8449 15.1509 22.555C15.1923 22.3525 15.2658 22.2927 15.2658 22.2927C15.2704 22.2835 15.2796 22.2743 15.2888 22.2697C15.3026 22.2513 15.321 22.2375 15.3394 22.2237C15.3762 22.1961 15.413 22.1685 15.4498 22.1454C15.6061 22.0488 15.7762 21.9798 15.9555 21.9292C16.0245 21.9108 16.0889 21.897 16.1579 21.8832C16.2038 21.8739 16.2544 21.8647 16.3004 21.8601C16.3556 21.8509 16.4108 21.8463 16.4659 21.8371C16.4981 21.8371 16.5257 21.8325 16.5579 21.8279L16.8016 21.8141C16.8476 21.8141 16.8982 21.8141 16.9487 21.8141H17.1005C17.1924 21.8187 17.2614 21.8279 17.3396 21.8325C17.4178 21.8371 17.4959 21.8463 17.5741 21.8509C17.7258 21.8739 17.8822 21.8878 18.0339 21.9154L18.2592 21.9522L18.3742 21.9706L18.4845 21.9936C18.6317 22.0258 18.7788 22.058 18.9213 22.0856H18.9305ZM17.1557 35.8446C17.0867 35.7985 17.0177 35.7571 16.9441 35.7249C16.9074 35.7065 16.866 35.6927 16.8062 35.6789C16.4475 35.6053 16.1027 35.458 15.7394 35.2924L15.5371 35.1773C15.5371 35.1773 15.5141 35.1589 15.5049 35.1497C15.1509 34.8736 15.0313 34.4042 15.1969 33.9579C15.3348 33.6174 15.6107 33.2998 15.9096 32.9593C16.0705 32.7707 16.2406 32.5774 16.397 32.3703L16.7188 31.947C17.1235 32.1678 17.5879 32.2783 18.0477 32.2829C18.3006 32.2829 18.5581 32.2507 18.8064 32.1816L19.2616 32.0574L20.0065 31.8549L20.0663 31.8365L20.1812 31.8043C20.218 31.7951 20.2502 31.7813 20.287 31.7721L20.4295 31.7215L20.5721 31.6617C20.756 31.5834 20.9399 31.4914 21.1146 31.3856C21.4641 31.1739 21.7768 30.9116 22.0527 30.6079C22.1906 30.456 22.3148 30.295 22.4297 30.1247C22.4849 30.0419 22.5401 29.9498 22.5906 29.867L22.6872 29.6968V29.6875H22.6964C22.6964 29.6875 22.6964 29.6876 22.6964 29.6829C22.6964 29.6829 22.6964 29.6829 22.6964 29.6783C22.6964 29.6783 22.6964 29.6783 22.701 29.6737C22.701 29.6737 22.701 29.6737 22.7056 29.6691C22.7148 29.6599 22.7194 29.6553 22.7286 29.6461C22.747 29.6323 22.7746 29.6231 22.7976 29.6185C22.7976 29.6185 22.8022 29.6185 22.8068 29.6185H22.8343L23.0275 29.6093L23.4137 29.5909L29.589 29.3056L35.7643 29.0203L41.9395 28.735L48.1148 28.4497L49.5862 28.3807L49.5586 28.7074C49.4897 29.2642 49.3931 29.8302 49.269 30.3778L49.2092 30.6447C48.9609 31.45 48.6068 32.2369 48.101 33.1158L47.7102 33.7692C47.4297 34.188 47.1538 34.5975 46.8503 34.9702C46.4549 35.4534 46.0825 35.978 45.7146 36.5762C45.0341 37.6806 44.188 39.0565 43.9489 40.6901V40.6993C43.7512 42.1764 43.8662 43.5937 44.2846 44.9098C44.5099 45.6691 44.7352 46.5618 44.6984 47.4177C44.6708 47.6248 44.5835 47.8503 44.4869 48.0849C44.4547 48.1586 44.4225 48.2322 44.3812 48.3012L44.3306 48.3887C43.9627 49.0973 43.3282 49.6449 42.7028 50.2155C42.5511 50.3536 42.3948 50.4962 42.2384 50.6389C40.0037 52.2126 37.976 53.3999 35.8746 54.3616L35.5666 54.4858C34.3389 55.0611 33.0698 55.4154 31.603 55.6823C31.5432 55.6915 31.4834 55.7007 31.4236 55.7053C31.2489 55.7329 31.0374 55.7559 30.9638 55.7283C30.458 55.535 30.3753 54.8586 30.3753 54.8586V54.8264C30.3523 54.4306 30.3339 54.0303 30.3155 53.6391C30.2235 51.6328 30.127 49.5575 29.543 47.4867C29.4924 47.3073 29.4327 47.137 29.3729 46.9714C29.3177 46.8195 29.2671 46.6768 29.2303 46.5434C29.2303 46.5342 29.2257 46.525 29.2211 46.5112C29.0878 46.1154 28.8947 45.7657 28.7061 45.4344C28.6694 45.3654 28.628 45.2963 28.5866 45.2227C28.582 45.2135 28.5728 45.1997 28.5682 45.1905C28.2141 44.6199 27.6578 44.3254 27.2669 44.1505C26.8347 43.9573 26.3933 43.9205 26.0025 43.8882C25.9197 43.8836 25.8369 43.8744 25.7542 43.8652C25.7404 43.8652 25.7266 43.8652 25.7128 43.8652C24.4115 43.8146 23.1286 43.9665 21.9331 44.1413C21.5009 44.1874 20.6962 44.1781 20.0801 43.6398C19.6019 43.221 19.2846 42.6228 19.1099 41.8037C19.0271 41.3251 19.1007 40.8097 19.1788 40.2621C19.2018 40.0919 19.2294 39.9124 19.2478 39.7376C19.2478 39.7238 19.2478 39.7145 19.2478 39.7007C19.3444 38.2466 18.5397 36.7787 17.1465 35.8354L17.1557 35.8446ZM63.0725 57.1778L35.824 72.9845C35.332 73.2698 34.8033 73.4492 34.2561 73.5229V63.726C34.2561 63.3256 33.9342 63.0035 33.5388 63.0035C33.1433 63.0035 32.8215 63.3256 32.8215 63.726V73.4861C32.3525 73.394 31.8972 73.2238 31.4742 72.9707L3.69695 56.598C3.25553 56.3357 2.86929 56.0044 2.55201 55.6133L19.4409 44.9604C20.172 45.462 21.0963 45.6783 22.094 45.5724C22.1032 45.5724 22.1124 45.5724 22.1216 45.5724C23.2482 45.4114 24.4483 45.2687 25.63 45.3102C25.7128 45.3194 25.8001 45.324 25.8829 45.3332C26.1956 45.3562 26.4669 45.3792 26.6784 45.4758C27.0186 45.6277 27.221 45.7749 27.3359 45.9498C27.3727 46.0188 27.4141 46.0832 27.4509 46.1523C27.6164 46.4468 27.7589 46.7045 27.8509 46.9621C27.9015 47.137 27.9613 47.3027 28.0164 47.4591C28.0716 47.611 28.1222 47.7536 28.159 47.8825C28.697 49.7876 28.7843 51.6926 28.8763 53.7082C28.8947 54.0947 28.9131 54.495 28.9361 54.8908C28.9361 54.8908 28.9452 55.3279 29.189 55.8709C29.5154 56.4876 29.9109 56.8557 30.4626 57.0812C30.6695 57.1594 30.8719 57.187 31.065 57.187C31.2581 57.187 31.4558 57.1594 31.6306 57.1318C31.6857 57.1226 31.7409 57.1134 31.8007 57.1088C31.8145 57.1088 31.8283 57.1088 31.8421 57.1042C33.41 56.8189 34.7573 56.4001 36.0769 55.7881L36.4126 55.6501C38.6381 54.6377 40.7486 53.4413 43.1029 51.7801C43.1305 51.7617 43.1581 51.7387 43.181 51.7156C43.3374 51.5684 43.4937 51.4257 43.6592 51.2739C44.326 50.6665 45.0157 50.0406 45.5031 49.1571C45.618 49.0053 45.8158 48.6141 45.8158 48.6141C45.9399 48.3058 46.0779 47.9561 46.1238 47.5466C46.1238 47.5328 46.1238 47.5143 46.1238 47.5005C46.1606 46.7045 46.0319 45.9222 45.8526 45.2135L64.5531 55.7513C64.1853 56.3311 63.6795 56.8235 63.0679 57.1778H63.0725ZM63.7209 16.0529L36.4356 0.738565C34.6791 -0.246188 32.5778 -0.246188 30.8213 0.738565L2.96125 16.3336C1.1266 17.3597 -0.00914082 19.3062 5.5428e-05 21.4184L0.119607 52.8661C0.128803 54.9046 1.21856 56.8143 2.97044 57.8451L30.7477 74.2085C31.6444 74.7377 32.6513 75 33.6629 75C34.6745 75 35.6539 74.7423 36.546 74.2269L63.7944 58.4203C65.5739 57.3895 66.6775 55.466 66.6775 53.3999V21.1101C66.6775 19.0117 65.5463 17.0698 63.7209 16.0483V16.0529Z" fill="#E42129"/>
<path fill-rule="evenodd" clip-rule="evenodd" d="M17.1418 24.423C17.1418 24.3217 17.1464 24.2251 17.1556 24.1285V24.0502H17.1694C17.1694 24.0502 17.197 24.0502 17.2108 24.0502L17.2935 24.0594C17.3487 24.064 17.4039 24.0686 17.4637 24.0732L17.643 24.0963C17.7028 24.1055 17.7625 24.1101 17.8223 24.1239L18.0062 24.1561L18.0982 24.1699L18.1994 24.1929L18.4017 24.2343C18.4706 24.2481 18.535 24.2619 18.6132 24.2757L20.1628 24.5748L20.2593 24.5932L20.3237 24.607L20.3973 24.6208C20.4984 24.6392 20.5996 24.6485 20.7007 24.6577C20.8019 24.6669 20.9031 24.6715 21.0042 24.6761H21.2019L21.979 24.6945L25.0873 24.7497L31.304 24.8601L37.5207 24.9706L43.7373 25.081L49.4068 25.1822C49.462 25.1822 49.508 25.2329 49.508 25.2881V25.3663C49.5034 25.4261 49.4528 25.4721 49.393 25.4767L48.2435 25.5274L42.0314 25.8127L35.8194 26.098L29.6073 26.3833L23.3952 26.6686L23.009 26.687L22.8159 26.6962H22.7423L22.6503 26.71C22.5906 26.71 22.5262 26.7238 22.4664 26.733C21.979 26.8066 21.5054 26.9861 21.1008 27.2668C20.8985 27.4048 20.7099 27.5705 20.5398 27.75C20.4984 27.796 20.457 27.842 20.4157 27.888C20.3789 27.934 20.3375 27.9846 20.3007 28.0353C20.2639 28.0859 20.2271 28.1365 20.1949 28.1871L20.1444 28.2654L20.103 28.3344L20.0064 28.5046C19.988 28.5322 19.9788 28.5507 19.9604 28.5737C19.9328 28.6197 19.8961 28.6611 19.8593 28.6979C19.7857 28.7761 19.7029 28.8498 19.6064 28.905C19.5604 28.9326 19.5098 28.9556 19.4592 28.9786L19.4225 28.9924L19.3857 29.0062C19.3857 29.0062 19.3581 29.0154 19.3443 29.02H19.3259L19.3121 29.0292H19.2891L18.5396 29.2409L18.2499 29.3191L18.2407 29.3053C18.2223 29.2731 18.1994 29.2409 18.1764 29.2041L18.0614 28.997C17.9878 28.8544 17.9143 28.7117 17.8499 28.5645C17.7212 28.27 17.6062 27.957 17.5096 27.6395C17.3211 26.9999 17.2062 26.3143 17.1556 25.6194C17.128 25.2283 17.1188 24.8325 17.128 24.4368L17.1418 24.423ZM16.521 27.9156C16.6268 28.2746 16.7555 28.6289 16.9073 28.9694C16.9809 29.1397 17.0682 29.3053 17.151 29.471L17.2889 29.7149C17.3119 29.7563 17.3395 29.7931 17.3625 29.8345L17.4177 29.9265C17.4958 30.0646 17.6154 30.1842 17.7579 30.2625C17.9005 30.3407 18.0614 30.3775 18.2223 30.3729C18.3097 30.3729 18.3971 30.3499 18.4798 30.3269L18.8293 30.2349L19.5788 30.0324C19.611 30.0232 19.634 30.0186 19.6616 30.0094C19.6891 30.0002 19.7121 29.9956 19.7351 29.9864L19.8087 29.9588L19.8823 29.9265C19.9788 29.8851 20.0754 29.8391 20.1628 29.7839C20.3421 29.6735 20.5076 29.54 20.6456 29.3882C20.7145 29.3099 20.7835 29.2271 20.8387 29.1397C20.8709 29.0982 20.8939 29.0522 20.9214 29.0062L21.018 28.836C21.1789 28.5507 21.4134 28.293 21.6939 28.1043C21.9698 27.9156 22.2917 27.7914 22.6228 27.7408C22.6641 27.7362 22.7055 27.727 22.7469 27.727H22.8113L22.8665 27.7178L23.0596 27.7086L23.4458 27.6901L29.6579 27.4048L35.8699 27.1195L42.082 26.8342L48.2941 26.5489L49.6827 26.4845C49.7517 26.4845 49.8161 26.4799 49.885 26.4707C49.9494 26.4615 50.0184 26.4431 50.0782 26.4155C50.2023 26.3649 50.3081 26.2774 50.3908 26.1716C50.469 26.0658 50.5196 25.9369 50.5334 25.8035C50.538 25.739 50.5426 25.67 50.5472 25.6056L50.561 25.3571L50.584 24.9107C50.5885 24.7773 50.561 24.6439 50.4966 24.5242C50.3724 24.2849 50.1103 24.1331 49.8437 24.1285L43.7695 24.0226L37.5529 23.9122L31.3362 23.8017L25.1195 23.6913L22.0112 23.6361L21.2341 23.6223H21.0364C20.9582 23.6177 20.8847 23.6131 20.8065 23.6039C20.7283 23.5947 20.6548 23.5855 20.5766 23.5763L20.4662 23.5579L20.3697 23.5395L18.8339 23.2449C18.6868 23.2173 18.5488 23.1851 18.4063 23.1575L18.3005 23.1345L18.1994 23.1161L17.9924 23.0793C17.8545 23.0563 17.7166 23.0425 17.5786 23.0241C17.5096 23.0149 17.4407 23.0149 17.3763 23.0057L17.2751 22.9965C17.2751 22.9965 17.2429 22.9965 17.2246 22.9965H17.1786H17.1096C17.0866 22.9965 17.059 22.9965 17.036 22.9965H16.8889L16.7417 23.0103C16.6912 23.0195 16.6452 23.0241 16.5946 23.0333C16.498 23.0517 16.4015 23.0793 16.3141 23.1253C16.2911 23.1345 16.2727 23.1483 16.2498 23.1621C16.2406 23.1713 16.2314 23.1759 16.2222 23.1851C16.2222 23.1851 16.213 23.1943 16.2084 23.1989V23.2173C16.1992 23.268 16.19 23.314 16.1854 23.3646C16.167 23.5118 16.1486 23.6637 16.1394 23.811L16.1302 23.9214L16.121 24.0594C16.1164 24.1653 16.1118 24.2757 16.1072 24.3816C16.098 24.8095 16.1072 25.2375 16.1348 25.6654C16.19 26.4247 16.3141 27.1794 16.5256 27.9018L16.521 27.9156Z" fill="#E42129"/>
</svg>
